<svg width="25" height="25" viewBox="0 0 25 25" fill="none" xmlns="http://www.w3.org/2000/svg">
<path d="M19.4238 6.36445C19.4133 6.46992 19.407 6.59023 19.4043 6.7207L17.9066 7.43594C17.6969 7.40156 16.6566 7.46211 15.1051 6.69648C14.7117 6.50234 14.3273 6.39922 13.9582 6.39922C13.6241 6.39954 13.2949 6.4792 12.9977 6.63164C12.6059 6.54687 12.0414 6.32969 11.7113 6.33047C10.9645 6.33437 9.26641 6.94258 8.79609 6.99453C8.33594 7.04492 7.86211 7.17148 7.38516 7.37305C6.51836 7.1207 5.43164 6.70859 4.84961 6.48086L0.78125 3.51562V13.0508L3.77109 14.4734C3.81445 14.4227 3.86406 14.3445 3.91797 14.2477L4.01055 14.2906C4.05586 14.4078 4.10586 14.5245 4.16055 14.6406C3.83242 15.193 3.79336 15.8152 4.05547 16.3563C4.28008 16.8191 4.69844 17.1441 5.16445 17.2352C5.18984 17.5234 5.28672 17.8023 5.45 18.0441C5.74297 18.4766 6.20859 18.7348 6.69648 18.7348C6.74076 18.7348 6.78477 18.7324 6.82852 18.7277C6.89805 18.9156 7 19.0906 7.13242 19.2422C7.42695 19.5809 7.83945 19.775 8.26367 19.775C8.29492 19.775 8.32578 19.774 8.35625 19.7719C8.41016 19.9766 8.50195 20.1703 8.63008 20.343C8.925 20.7414 9.38008 20.9785 9.84805 20.9785C10.1387 20.9785 10.4164 20.8895 10.6613 20.7227C11.1348 21.0266 11.5465 21.2402 11.9117 21.3715C12.0949 21.4461 12.2855 21.4844 12.4801 21.4844C12.9402 21.4844 13.3867 21.2695 13.7055 20.8937C13.8238 20.7539 13.9199 20.5977 13.9902 20.4305C14.128 20.472 14.271 20.4933 14.4148 20.4937C14.9039 20.4937 15.3676 20.2543 15.6883 19.8355C15.8408 19.6372 15.9511 19.4097 16.0125 19.1672C16.0461 19.1695 16.0794 19.1707 16.1125 19.1707C16.6777 19.1707 17.2188 18.8391 17.523 18.3051C17.6825 18.0273 17.7672 17.7129 17.7687 17.3926C18.3273 17.3094 18.8191 16.9121 19.0586 16.3328C19.2945 15.7621 19.2305 15.1324 18.9012 14.6074L20.4227 13.75C20.4617 13.8836 20.5 14.0066 20.5371 14.1066L24.2188 12.1477V4.15703L19.4238 6.36445ZM19.4234 7.55078C19.4477 7.97344 19.4918 8.45117 19.5488 8.95C19.2363 8.425 18.8418 8.18555 18.352 8.06641L19.4234 7.55078ZM17.3812 16.8305C16.5422 16.5418 14.7957 14.4887 14.7957 14.4887H14.8301C15.0078 14.4762 15.3918 14.2891 15.8227 14.3785C15.1461 13.7973 14.402 14.2891 13.8953 13.9879C14.0129 14.3648 14.5781 14.4836 14.723 14.4883L16.3965 16.4344C17.1543 17.3152 16.6266 18.4051 15.8668 18.5785C15.357 18.3305 13.9176 16.6184 13.9176 16.6184C13.9668 16.6094 14.2586 16.518 14.5559 16.557C13.8695 16.0438 13.0914 16.4891 12.6297 16.1668C12.8914 16.8133 13.7535 16.6477 13.8437 16.632L14.7391 17.775C15.4555 18.6891 14.8926 19.7449 14.1316 19.8879C13.457 19.6508 13.0191 18.807 13.0191 18.807C13.0871 18.7961 13.3145 18.6949 13.6379 18.7418C13.0625 18.2375 12.3926 18.6949 11.9898 18.4078C12.2387 18.95 12.859 18.8266 12.8938 18.8227C13.5141 19.7996 12.8707 20.8184 12.102 20.8488H12.1012L12.1004 20.8492C11.6387 20.7691 11.1551 20.4 10.609 20.0211C10.7965 19.8133 10.9621 19.448 10.9621 19.448C11.5105 18.4551 10.7988 17.577 10.0641 17.6523C10.6602 17.8152 11.107 18.5762 10.6418 19.4211L10.4375 19.7648C10.2156 20.1691 9.86914 20.4133 9.61445 20.3832C9.22227 20.3355 8.66953 19.7629 8.90195 18.9551C8.9918 18.873 9.8582 17.5477 9.8582 17.5477C10.4539 16.5883 9.78516 15.6699 9.04844 15.7012C9.63516 15.8992 10.0465 16.6859 9.54062 17.5023L8.83633 18.6004C8.59609 18.9887 8.28516 19.2086 7.98867 19.168C7.52852 19.1055 7.20586 18.5441 7.27969 17.9648C7.27578 17.9684 7.78672 17.3969 7.78672 17.3969C8.46562 16.5098 7.88438 15.5191 7.14883 15.4672C7.71406 15.7305 8.05078 16.5602 7.47383 17.3152L7.22461 17.6207C6.95117 17.9793 6.62188 18.1617 6.33359 18.0898C5.83047 17.9637 5.56875 17.0223 5.80664 16.7656C5.99375 16.5637 6.51914 15.9242 6.51914 15.9242C7.19766 15.0367 6.61719 14.0465 5.88086 13.9938C6.44648 14.2578 6.7832 15.0875 6.20625 15.843L5.95703 16.1477C5.68203 16.5094 5.35156 16.691 5.06133 16.6172C4.45664 16.4641 4.15469 15.5305 4.7332 14.7727C4.7332 14.7727 4.53672 14.1484 4.44805 13.8816L4.15664 13.7465C4.83984 12.1547 5.87188 8.64141 5.91953 7.47422C6.42266 7.65352 7.75078 8.03555 7.8918 8.03633L7.89102 8.03711C9.3207 7.58789 10.8191 7.6375 11.5027 7.37344C11.7242 7.28906 12.1648 7.28359 12.632 7.55078C12.3402 7.80664 12.0645 8.11133 11.7781 8.39531C11.0938 9.07461 8.54922 10.134 9.03984 11.248C9.46328 12.2094 10.6559 13.193 12.6563 11.6488L13.7812 11.4941L15.5309 12.3574L17.773 14.6602C18.5727 15.4797 18.1199 16.5922 17.3812 16.8305ZM17.9438 14.2934C17.6867 13.8129 16.8855 13.025 16.1293 12.3809L16.1246 12.3762C16.4734 12.3902 16.8395 11.8285 17.3125 11.7852C16.982 11.5328 16.4344 11.8242 16.2637 11.8703C15.3227 12.1234 13.8602 10.9395 13.8602 10.9395L12.4609 11.141C12.4609 11.141 10.7969 13.1719 9.39492 11.4988C8.63359 10.5902 11.3926 9.40352 12.0723 8.72813C12.943 7.86289 13.7187 6.8043 15.1512 7.52539C16.341 8.12539 16.8098 8.08828 18.4059 8.36602C18.8816 8.44922 19.2113 8.66719 19.5648 9.09258C19.7312 10.4926 20.0004 12.0453 20.2586 13.1258C20.1254 13.2379 18.9836 14.0059 17.9438 14.2934Z" fill="black"/>
</svg>
