<svg width="25" height="19" viewBox="0 0 25 19" fill="none" xmlns="http://www.w3.org/2000/svg">
<path d="M19.4238 3.36445C19.4133 3.46992 19.407 3.59023 19.4043 3.7207L17.9066 4.43594C17.6969 4.40156 16.6566 4.46211 15.1051 3.69648C14.7117 3.50234 14.3273 3.39922 13.9582 3.39922C13.6241 3.39954 13.2949 3.4792 12.9977 3.63164C12.6059 3.54687 12.0414 3.32969 11.7113 3.33047C10.9645 3.33437 9.26641 3.94258 8.79609 3.99453C8.33594 4.04492 7.86211 4.17148 7.38516 4.37305C6.51836 4.1207 5.43164 3.70859 4.84961 3.48086L0.78125 0.515625V10.0508L3.77109 11.4734C3.81445 11.4227 3.86406 11.3445 3.91797 11.2477L4.01055 11.2906C4.05586 11.4078 4.10586 11.5245 4.16055 11.6406C3.83242 12.193 3.79336 12.8152 4.05547 13.3563C4.28008 13.8191 4.69844 14.1441 5.16445 14.2352C5.18984 14.5234 5.28672 14.8023 5.45 15.0441C5.74297 15.4766 6.20859 15.7348 6.69648 15.7348C6.74076 15.7348 6.78477 15.7324 6.82852 15.7277C6.89805 15.9156 7 16.0906 7.13242 16.2422C7.42695 16.5809 7.83945 16.775 8.26367 16.775C8.29492 16.775 8.32578 16.774 8.35625 16.7719C8.41016 16.9766 8.50195 17.1703 8.63008 17.343C8.925 17.7414 9.38008 17.9785 9.84805 17.9785C10.1387 17.9785 10.4164 17.8895 10.6613 17.7227C11.1348 18.0266 11.5465 18.2402 11.9117 18.3715C12.0949 18.4461 12.2855 18.4844 12.4801 18.4844C12.9402 18.4844 13.3867 18.2695 13.7055 17.8937C13.8238 17.7539 13.9199 17.5977 13.9902 17.4305C14.128 17.472 14.271 17.4933 14.4148 17.4937C14.9039 17.4937 15.3676 17.2543 15.6883 16.8355C15.8408 16.6372 15.9511 16.4097 16.0125 16.1672C16.0461 16.1695 16.0794 16.1707 16.1125 16.1707C16.6777 16.1707 17.2188 15.8391 17.523 15.3051C17.6825 15.0273 17.7672 14.7129 17.7687 14.3926C18.3273 14.3094 18.8191 13.9121 19.0586 13.3328C19.2945 12.7621 19.2305 12.1324 18.9012 11.6074L20.4227 10.75C20.4617 10.8836 20.5 11.0066 20.5371 11.1066L24.2188 9.14766V1.15703L19.4238 3.36445ZM19.4234 4.55078C19.4477 4.97344 19.4918 5.45117 19.5488 5.95C19.2363 5.425 18.8418 5.18555 18.352 5.06641L19.4234 4.55078ZM17.3812 13.8305C16.5422 13.5418 14.7957 11.4887 14.7957 11.4887H14.8301C15.0078 11.4762 15.3918 11.2891 15.8227 11.3785C15.1461 10.7973 14.402 11.2891 13.8953 10.9879C14.0129 11.3648 14.5781 11.4836 14.723 11.4883L16.3965 13.4344C17.1543 14.3152 16.6266 15.4051 15.8668 15.5785C15.357 15.3305 13.9176 13.6184 13.9176 13.6184C13.9668 13.6094 14.2586 13.518 14.5559 13.557C13.8695 13.0438 13.0914 13.4891 12.6297 13.1668C12.8914 13.8133 13.7535 13.6477 13.8437 13.632L14.7391 14.775C15.4555 15.6891 14.8926 16.7449 14.1316 16.8879C13.457 16.6508 13.0191 15.807 13.0191 15.807C13.0871 15.7961 13.3145 15.6949 13.6379 15.7418C13.0625 15.2375 12.3926 15.6949 11.9898 15.4078C12.2387 15.95 12.859 15.8266 12.8938 15.8227C13.5141 16.7996 12.8707 17.8184 12.102 17.8488H12.1012L12.1004 17.8492C11.6387 17.7691 11.1551 17.4 10.609 17.0211C10.7965 16.8133 10.9621 16.448 10.9621 16.448C11.5105 15.4551 10.7988 14.577 10.0641 14.6523C10.6602 14.8152 11.107 15.5762 10.6418 16.4211L10.4375 16.7648C10.2156 17.1691 9.86914 17.4133 9.61445 17.3832C9.22227 17.3355 8.66953 16.7629 8.90195 15.9551C8.9918 15.873 9.8582 14.5477 9.8582 14.5477C10.4539 13.5883 9.78516 12.6699 9.04844 12.7012C9.63516 12.8992 10.0465 13.6859 9.54062 14.5023L8.83633 15.6004C8.59609 15.9887 8.28516 16.2086 7.98867 16.168C7.52852 16.1055 7.20586 15.5441 7.27969 14.9648C7.27578 14.9684 7.78672 14.3969 7.78672 14.3969C8.46562 13.5098 7.88438 12.5191 7.14883 12.4672C7.71406 12.7305 8.05078 13.5602 7.47383 14.3152L7.22461 14.6207C6.95117 14.9793 6.62188 15.1617 6.33359 15.0898C5.83047 14.9637 5.56875 14.0223 5.80664 13.7656C5.99375 13.5637 6.51914 12.9242 6.51914 12.9242C7.19766 12.0367 6.61719 11.0465 5.88086 10.9938C6.44648 11.2578 6.7832 12.0875 6.20625 12.843L5.95703 13.1477C5.68203 13.5094 5.35156 13.691 5.06133 13.6172C4.45664 13.4641 4.15469 12.5305 4.7332 11.7727C4.7332 11.7727 4.53672 11.1484 4.44805 10.8816L4.15664 10.7465C4.83984 9.15469 5.87188 5.64141 5.91953 4.47422C6.42266 4.65352 7.75078 5.03555 7.8918 5.03633L7.89102 5.03711C9.3207 4.58789 10.8191 4.6375 11.5027 4.37344C11.7242 4.28906 12.1648 4.28359 12.632 4.55078C12.3402 4.80664 12.0645 5.11133 11.7781 5.39531C11.0938 6.07461 8.54922 7.13398 9.03984 8.24805C9.46328 9.20938 10.6559 10.193 12.6563 8.64883L13.7812 8.49414L15.5309 9.35742L17.773 11.6602C18.5727 12.4797 18.1199 13.5922 17.3812 13.8305ZM17.9438 11.2934C17.6867 10.8129 16.8855 10.025 16.1293 9.38086L16.1246 9.37617C16.4734 9.39023 16.8395 8.82852 17.3125 8.78516C16.982 8.53281 16.4344 8.82422 16.2637 8.87031C15.3227 9.12344 13.8602 7.93945 13.8602 7.93945L12.4609 8.14102C12.4609 8.14102 10.7969 10.1719 9.39492 8.49883C8.63359 7.59023 11.3926 6.40352 12.0723 5.72813C12.943 4.86289 13.7187 3.8043 15.1512 4.52539C16.341 5.12539 16.8098 5.08828 18.4059 5.36602C18.8816 5.44922 19.2113 5.66719 19.5648 6.09258C19.7312 7.49258 20.0004 9.04531 20.2586 10.1258C20.1254 10.2379 18.9836 11.0059 17.9438 11.2934Z" fill="black"/>
</svg>
